<?xml version="1.0" standalone="no"?>
<!DOCTYPE svg PUBLIC "-//W3C//DTD SVG 20010904//EN"
 "http://www.w3.org/TR/2001/REC-SVG-20010904/DTD/svg10.dtd">
<svg version="1.0" xmlns="http://www.w3.org/2000/svg"
 width="685.000000pt" height="685.000000pt" viewBox="0 0 685.000000 685.000000"
 preserveAspectRatio="xMidYMid meet">
<metadata>
Created by potrace 1.11, written by Peter Selinger 2001-2013
</metadata>
<g transform="translate(0.000000,685.000000) scale(0.100000,-0.100000)"
fill="#000000" stroke="none">
<path d="M2020 5836 c-44 -13 -193 -86 -415 -204 -60 -32 -247 -129 -413 -217
-167 -87 -325 -174 -352 -194 -97 -73 -160 -173 -186 -296 -11 -47 -13 -347
-14 -1438 0 -1367 0 -1378 20 -1418 57 -112 226 -114 287 -4 l23 40 0 1323 c0
1264 1 1323 18 1318 10 -3 150 -74 312 -157 162 -84 381 -196 485 -250 l190
-97 5 -1464 5 -1463 24 -34 c27 -38 90 -70 137 -71 51 0 115 40 141 90 l23 43
0 579 0 579 243 -125 c616 -317 753 -386 760 -386 4 0 7 -336 7 -746 0 -671 2
-749 16 -781 56 -118 226 -122 291 -8 l23 40 0 742 0 742 213 109 c442 228
784 402 791 402 3 0 6 -258 6 -573 l0 -573 23 -44 c30 -59 64 -82 131 -88 61
-5 116 19 151 66 19 26 20 48 26 602 4 316 7 975 8 1465 l1 890 203 103 c111
56 338 172 505 257 l302 155 0 -1326 c0 -1203 2 -1329 16 -1360 25 -52 68 -78
139 -82 50 -3 66 0 94 20 19 13 44 39 55 58 21 35 21 43 24 1429 2 1504 4
1442 -49 1555 -11 25 -49 76 -84 113 -67 73 -57 67 -530 316 -99 52 -283 149
-410 215 -126 67 -249 128 -273 136 -67 24 -160 30 -242 16 -81 -14 -111 -28
-1066 -521 l-191 -99 -349 181 c-720 373 -816 421 -867 435 -63 17 -196 17
-257 0z m614 -548 c242 -127 453 -239 467 -247 l27 -16 -207 -105 c-113 -58
-334 -170 -490 -250 l-283 -144 -82 42 c-44 23 -178 92 -296 153 -118 61 -299
153 -402 206 -104 53 -188 98 -188 102 0 4 28 21 63 38 78 40 311 162 579 304
114 60 226 118 250 129 86 39 82 40 562 -212z m2338 180 c56 -28 159 -82 228
-118 69 -37 177 -94 240 -127 295 -154 370 -195 370 -201 -1 -4 -15 -14 -33
-22 -18 -9 -237 -120 -487 -247 l-456 -232 -109 58 c-61 31 -256 132 -435 224
-179 91 -349 179 -379 195 l-54 30 44 22 c24 13 231 120 459 240 228 119 422
220 430 223 40 15 84 4 182 -45z m-1645 -1080 c-4 -199 -7 -464 -7 -590 l0
-228 -47 -23 c-52 -25 -481 -249 -768 -401 -99 -52 -183 -92 -187 -90 -4 3 -8
268 -8 588 0 455 3 586 13 594 6 5 165 88 352 183 187 95 408 208 490 251 83
43 154 78 159 78 6 0 7 -146 3 -362z m528 265 c99 -50 275 -140 390 -200 116
-59 259 -133 318 -163 l107 -55 0 -598 0 -599 -102 55 c-57 30 -184 97 -283
149 -99 52 -280 148 -402 212 l-223 118 0 590 c0 324 3 588 8 586 4 -1 88 -44
187 -95z m-165 -1472 c80 -43 286 -151 457 -242 172 -90 313 -166 313 -169 0
-3 -219 -116 -487 -252 l-486 -248 -256 131 c-552 283 -722 371 -719 374 2 1
140 74 308 162 688 361 632 335 690 326 19 -3 100 -40 180 -82z"/>
</g>
</svg>
